# AST/ASF file generated using VICON BodyLanguage
# -----------------------------------------------
:version 1.10
:name VICON
:units
  mass 1.0
  length 0.45
  angle deg
:documentation
   .ast/.asf automatically generated from VICON data using
   VICON BodyBuilder and BodyLanguage model FoxedUp or BRILLIANT.MOD
:root
   order TX TY TZ RX RY RZ
   axis XYZ
   position 0 0 0  
   orientation 0 0 0 
:bonedata
  begin
     id 1 
     name lhipjoint
     direction 0.671379 -0.66392 0.329334 
     length 2.38647 
     axis 0 0 0  XYZ
  end
  begin
     id 2 
     name lfemur
     direction 0.34202 -0.939693 0  
     length 6.48179  
     axis 0 0 20  XYZ
    dof rx ry rz
    limits (-160.0 20.0)
           (-70.0 70.0)
           (-60.0 70.0)
  end
  begin
     id 3 
     name ltibia
     direction 0.34202 -0.939693 0   
     length 6.86524   
     axis 0 0 20   XYZ
    dof rx
    limits (-10.0 170.0)
  end
  begin
     id 4 
     name lfoot
     direction 0.204886 -0.562919 0.800715   
     length 1.73031   
     axis -90 7.62852e-016 20   XYZ
    dof rx rz
    limits (-45.0 90.0)
           (-70.0 20.0)
  end
  begin
     id 5 
     name ltoes
     direction 1.53548e-011 -4.21841e-011 1   
     length 0.828161   
     axis -90 7.62852e-016 20   XYZ
    dof rx
    limits (-90.0 20.0)
  end
  begin
     id 6 
     name rhipjoint
     direction -0.662732 -0.670855 0.332775   
     length 2.3618  
     axis 0 0 0  XYZ 
  end
  begin
     id 7 
     name rfemur
     direction -0.34202 -0.939693 0   
     length 6.3025   
     axis 0 0 -20   XYZ
    dof rx ry rz
    limits (-160.0 20.0)
           (-70.0 70.0)
           (-70.0 60.0)
  end
  begin
     id 8 
     name rtibia
     direction -0.34202 -0.939693 0   
     length 6.8732   
     axis 0 0 -20   XYZ
    dof rx
    limits (-10.0 170.0)
 end
 begin
     id 9 
     name rfoot
     direction -0.173856 -0.477665 0.861168   
     length 1.54784  
     axis -90 -7.62852e-016 -20   XYZ
    dof rx rz
    limits (-45.0 90.0)
           (-20.0 70.0)
  end
  begin
     id 10 
     name rtoes
     direction -1.53562e-011 -4.21802e-011 1   
     length 0.759618   
     axis -90 -7.62852e-016 -20   XYZ
    dof rx
    limits (-90.0 20.0)
  end
  begin
     id 11 
     name lowerback
     direction -0.0278357 0.999497 -0.0151789   
     length 1.97203   
     axis 0 0 0   XYZ
    dof rx ry rz
    limits (-20.0 45.0)
           (-30.0 30.0)
           (-30.0 30.0)
  end
  begin
     id 12 
     name upperback
     direction -0.00360622 0.997542 0.0699804   
     length 1.94709   
     axis 0 0 0   XYZ
    dof rx ry rz
    limits (-20.0 45.0)
           (-30.0 30.0)
           (-30.0 30.0)
  end
  begin
     id 13 
     name thorax
     direction 0.00907706 0.997048 0.0762461   
     length 1.95722   
     axis 0 0 0   XYZ
    dof rx ry rz
    limits (-20.0 45.0)
           (-30.0 30.0)
           (-30.0 30.0)
  end
  begin
     id 14 
     name lowerneck
     direction -0.0481835 0.99872 -0.0153927   
     length 1.63078   
     axis 0 0 0   XYZ
    dof rx ry rz
    limits (-20.0 45.0)
           (-30.0 30.0)
           (-30.0 30.0)
  end
  begin
     id 15 
     name upperneck
     direction 0.0859716 0.979226 -0.183644   
     length 1.62591   
     axis 0 0 0   XYZ
    dof rx ry rz
    limits (-20.0 45.0)
           (-30.0 30.0)
           (-30.0 30.0)
  end
  begin
     id 16
     name head
     direction 0.0324821 0.997629 -0.0606773  
     length 1.64811  
     axis 0 0 0   XYZ
    dof rx ry rz
    limits (-20.0 45.0)
           (-30.0 30.0)
           (-30.0 30.0)
  end
  begin
     id 17 
     name lclavicle
     direction 0.939609 0.311019 0.142835  
     length 3.70647  
     axis 0 0 0   XYZ
    dof ry rz
    limits (-20.0 10.0)
           (0.0 20.0)
  end
  begin
     id 18 
     name lhumerus
     direction 1 -4.48963e-011 -1.59838e-027   
     length 4.59207   
     axis 180 -30 -90   XYZ
    dof rx ry rz
    limits (-60.0 90.0)
           (-90.0 90.0)
           (-90.0 90.0)
  end
  begin
     id 19
     name lradius
     direction 1 -4.48957e-011 -1.3483e-026   
     length 2.98109   
     axis 180 -30 -90   XYZ
    dof rx
    limits (-10.0 170.0)
  end
  begin
     id 20
     name lwrist
     direction 1 -4.48954e-011 -3.11579e-026   
     length 1.49055   
     axis 2.00652e-014 90 90   XYZ
    dof ry
    limits (-180.0 0.0)
 end
  begin
     id 21 
     name lhand
     direction 1 -4.4911e-011 -6.23158e-026   
     length 0.480203   
     axis 3.97628e-014 90 90   XYZ
    dof rx rz
    limits (-90.0 90.0)
           (-45.0 45.0)
  end
  begin
     id 22 
     name lfingers
     direction 1 -4.48893e-011 -1.24632e-025   
     length 0.387152   
     axis 7.95256e-014 90 90   XYZ
    dof rx
    limits (0.0 90.0)
  end
  begin
     id 23
     name lthumb
     direction 0.707107 -6.35013e-011 0.707107   
     length 0.555875   
     axis -90 45 2.85299e-015   XYZ
    dof rx rz
    limits (-45.0 45.0)
           (-45.0 45.0)
  end
  begin
     id 24 
     name rclavicle
     direction -0.950396 0.30392 0.0661859   
     length 3.70894  
     axis 0 0 0   XYZ 
    dof ry rz
    limits (-10.0 20.0)
           (-20.0 0.0)
  end
  begin
     id 25 
     name rhumerus
     direction -1 -4.48957e-011 -2.96677e-027  
     length 4.76508   
     axis 180 30 90   XYZ
    dof rx ry rz
    limits (-90.0 60.0)
           (-90.0 90.0)
           (-90.0 90.0)
  end
  begin
     id 26 
     name rradius
     direction -1 -4.48974e-011 -1.44501e-026   
     length 2.78902   
     axis 180 30 90   XYZ
    dof rx
    limits (-10.0 170.0)
  end
  begin
     id 27 
     name rwrist
     direction -1 -4.48978e-011 -3.11579e-026   
     length 1.39451   
     axis 2.00652e-014 -90 -90   XYZ
    dof ry
    limits (-180.0 0.0)
  end
  begin
     id 28
     name rhand
     direction -1 -4.48956e-011 -6.23158e-026   
     length 0.721303   
     axis 3.97628e-014 -90 -90   XYZ
    dof rx rz
    limits (-90.0 90.0)
           (-45.0 45.0)
  end
  begin
     id 29
     name rfingers
     direction -1 -4.4899e-011 -1.24632e-025   
     length 0.581533   
     axis 7.95256e-014 -90 -90   XYZ
    dof rx
    limits (0.0 90.0)
  end
  begin
     id 30
     name rthumb
     direction -0.707107 -6.34911e-011 0.707107   
     length 0.834968   
     axis -90 -45 -2.85299e-015   XYZ
    dof rx rz
    limits (-45.0 45.0)
           (-45.0 45.0)
  end
:hierarchy
  begin
    root lhipjoint rhipjoint lowerback
    lhipjoint lfemur
    lfemur ltibia
    ltibia lfoot
    lfoot ltoes
    rhipjoint rfemur
    rfemur rtibia
    rtibia rfoot
    rfoot rtoes
    lowerback upperback
    upperback thorax
    thorax lowerneck lclavicle rclavicle
    lowerneck upperneck
    upperneck head
    lclavicle lhumerus
    lhumerus lradius
    lradius lwrist
    lwrist lhand lthumb
    lhand lfingers
    rclavicle rhumerus
    rhumerus rradius
    rradius rwrist
    rwrist rhand rthumb
    rhand rfingers
  end

#!OML:ASF I:\salsa\salsa 7_09\Patient 1\Session 1\dancerfemale.ASF
:FULLY-SPECIFIED
:DEGREES
58
root 18.3687 16.0335 -0.118282 -137.565 -87.9351 141.864
lowerback 0.673531 3.91047 -2.04106
upperback -4.57848 5.05193 -0.934863
thorax -5.20395 2.54518 -0.093993
lowerneck -7.1187 -4.6072 -6.74782
upperneck 12.4143 -5.98199 3.65409
head 5.21824 -3.04368 1.82617
rclavicle 9.93923e-017 -6.36111e-015
rhumerus -48.7796 -38.3879 -67.736
rradius 31.8979
rwrist 0.614997
rhand 1.75463 36.0574
rfingers 7.12502
rthumb 27.2699 8.00908
lclavicle 9.93923e-017 -6.36111e-015
lhumerus -41.6604 23.9759 80.393
lradius 35.9185
lwrist -18.6881
lhand -34.4489 46.3409
lfingers 7.12502
lthumb -7.61282 76.1839
rfemur -15.7898 -2.49707 15.9713
rtibia 29.303
rfoot -23.912 -14.02
rtoes -8.61342
lfemur -16.6497 -3.38561 -24.6739
ltibia 33.2506
lfoot -24.0932 5.09368
ltoes -10.4891
59
root 18.3526 16.0394 -0.146902 -136.488 -87.9636 140.779
lowerback 0.639281 3.87554 -2.07739
upperback -4.61461 5.00244 -0.944412
thorax -5.22393 2.52157 -0.0802233
lowerneck -7.15432 -4.56564 -6.63636
upperneck 12.6664 -5.93013 3.52213
head 5.29241 -3.02446 1.7683
rclavicle -6.51517e-014 -1.39149e-015
rhumerus -48.5594 -38.4137 -68.0251
rradius 32.1471
rwrist 0.203638
rhand 1.79805 36.1133
rfingers 7.12502
rthumb 27.3114 8.07157
lclavicle -6.51517e-014 -1.39149e-015
lhumerus -42.1811 23.8261 80.1557
lradius 36.2282
lwrist -18.5019
lhand -34.1953 46.3218
lfingers 7.12502
lthumb -7.36808 76.1735
rfemur -15.4934 -1.98559 16.0528
rtibia 29.0132
rfoot -24.2048 -14.3942
rtoes -7.55247
lfemur -16.5685 -3.51594 -24.5844
ltibia 33.2395
lfoot -24.1351 5.22343
ltoes -10.6772
60
root 18.3366 16.0461 -0.174391 -138.028 -88.0131 142.429
lowerback 0.423795 3.8526 -1.95854
upperback -4.63265 4.97711 -0.988857
thorax -5.10486 2.50246 -0.174227
lowerneck -7.17693 -4.53228 -6.40559
upperneck 12.7847 -5.89014 3.32675
head 5.31803 -3.00796 1.67199
rclavicle 4.0639e-014 -2.08724e-014
rhumerus -48.2731 -38.5675 -68.3751
rradius 32.3315
rwrist -0.0793565
rhand 1.77482 36.2402
rfingers 7.12502
rthumb 27.2892 8.195
lclavicle 4.0639e-014 -2.08724e-014
lhumerus -42.7391 23.6159 79.8847
lradius 36.6371
lwrist -18.2001
lhand -34.3391 46.194
lfingers 7.12502
lthumb -7.50692 76.0407
rfemur -15.3631 -1.4473 16.2267
rtibia 28.7948
rfoot -24.5015 -14.7063
rtoes -6.58131
lfemur -16.626 -3.6428 -24.3975
ltibia 33.2529
lfoot -24.174 5.38443
ltoes -11.0716
61
root 18.3194 16.0485 -0.199899 -139.28 -88.0415 143.795
lowerback 0.166196 3.84337 -1.89129
upperback -4.64229 4.97034 -1.00748
thorax -4.96056 2.49543 -0.210941
lowerneck -7.04534 -4.48282 -6.28354
upperneck 12.7158 -5.82972 3.21479
head 5.26428 -2.98119 1.62563
rclavicle 1.89218e-014 -8.15017e-015
rhumerus -48.0079 -38.7337 -68.5623
rradius 32.3966
rwrist -0.186927
rhand 1.67052 36.3537
rfingers 7.12502
rthumb 27.1894 8.29279
lclavicle 1.89218e-014 -8.15017e-015
lhumerus -42.986 23.7474 79.5041
lradius 36.4209
lwrist -18.2504
lhand -34.3687 45.9998
lfingers 7.12502
lthumb -7.53547 75.8456
rfemur -15.287 -1.1182 16.3796
rtibia 28.6546
rfoot -24.7551 -14.8769
rtoes -6.06059
lfemur -16.6974 -3.83785 -24.2511
ltibia 33.3064
lfoot -24.1906 5.64165
ltoes -11.5989
62
root 18.3045 16.0475 -0.226756 -140.44 -88.0323 144.986
lowerback 0.0351134 3.82834 -1.95096
upperback -4.65997 4.95183 -0.967469
thorax -4.91328 2.48928 -0.127291
lowerneck -6.80012 -4.41537 -6.06777
upperneck 12.5586 -5.74083 2.95453
head 5.15579 -2.94604 1.5235
rclavicle 3.8527e-014 -5.56597e-015
rhumerus -47.7887 -38.8192 -68.6126
rradius 32.3693
rwrist -0.125631
rhand 1.57881 36.5131
rfingers 7.12502
rthumb 27.1017 8.43847
lclavicle 3.8527e-014 -5.56597e-015
lhumerus -43.0395 24.2532 78.9923
lradius 35.6532
lwrist -18.6938
lhand -34.5727 45.8451
lfingers 7.12502
lthumb -7.73238 75.6838
rfemur -15.1938 -0.952366 16.5172
rtibia 28.5694
rfoot -24.8867 -14.9513
rtoes -5.83036
lfemur -16.6962 -4.09484 -24.1364
ltibia 33.387
lfoot -24.2575 6.01376
ltoes -12.1958
